<?xml version="1.0" encoding="UTF-8"?>
<svg xmlns="http://www.w3.org/2000/svg" xmlns:xlink="http://www.w3.org/1999/xlink" version="1.1" width="512" height="512" x="0" y="0" viewBox="0 0 512 512" style="enable-background:new 0 0 512 512" xml:space="preserve" class="">
  <g>
    <linearGradient id="a" x1="21.812" x2="486.794" y1="13.194" y2="478.177" gradientUnits="userSpaceOnUse">
      <stop stop-opacity="1" stop-color="#ffc23c" offset="0"/>
      <stop stop-opacity="1" stop-color="#ff4500" offset="0.0012853273804445484"/>
      <stop stop-opacity="1" stop-color="#ff4500" offset="0.04755781913863943"/>
      <stop stop-opacity="1" stop-color="#ff4500" offset="0.5025706547608891"/>
      <stop stop-opacity="1" stop-color="#ff4500" offset="1"/>
    </linearGradient>
    <path fill="url(#a)" d="M46.618 68.274c0-6.605 5.386-11.991 11.991-11.991s12.019 5.386 12.019 11.991-5.414 12.019-12.019 12.019-11.991-5.386-11.991-12.019zm49.579 12.019c6.633 0 12.019-5.386 12.019-12.019s-5.386-11.991-12.019-11.991-11.991 5.386-11.991 11.991 5.386 12.019 11.991 12.019zm37.616 0c6.605 0 11.991-5.386 11.991-12.019s-5.386-11.991-11.991-11.991-12.019 5.386-12.019 11.991 5.386 12.019 12.019 12.019zm174.568 229.891c0-6.627-5.373-12-12-12H78.961c-6.627 0-12 5.373-12 12s5.373 12 12 12H296.38c6.627 0 12-5.373 12-12zm-155.944 27.855H78.962c-6.627 0-12 5.373-12 12s5.373 12 12 12h73.475c6.627 0 12-5.373 12-12s-5.373-12-12-12zm-73.475-54.124h29.282c6.627 0 12-5.373 12-12s-5.373-12-12-12H78.962c-6.627 0-12 5.373-12 12s5.373 12 12 12zm240.493-24H149.857c-6.627 0-12 5.373-12 12s5.373 12 12 12h169.598c6.627 0 12-5.373 12-12s-5.373-12-12-12zM66.962 230.897V172.39c0-6.627 5.373-12 12-12h303.763c6.627 0 12 5.373 12 12v58.507c0 6.627-5.373 12-12 12H78.961c-6.627 0-12-5.373-12-12zm24-12h279.763V184.39H90.961v34.507zm377.039 215.604v57.497a12.002 12.002 0 0 1-16.826 10.987l-47.445-20.841-47.444 20.841a12 12 0 0 1-16.826-10.987v-55.579H40.41C22.539 436.419 8 421.88 8 404.009v-363.6C8 22.538 22.539 8 40.41 8h380.837c17.87 0 32.409 14.539 32.409 32.409v230.212C483.719 287.959 504 320.445 504 357.58c0 30.862-14.011 58.509-36 76.922zM403.73 281.278c-42.072 0-76.3 34.228-76.3 76.3s34.228 76.3 76.3 76.3 76.271-34.228 76.271-76.3-34.215-76.3-76.271-76.3zM32 40.409v60.199h133.977l12.145-18.327a12 12 0 0 1 10.003-5.371h241.532V40.409c0-4.637-3.772-8.409-8.409-8.409H40.41C35.772 32 32 35.772 32 40.409zm8.41 372.012h279.382c-10.339-15.772-16.363-34.615-16.363-54.841 0-55.306 44.994-100.3 100.3-100.3 8.964 0 17.654 1.189 25.928 3.407V100.91H194.568l-12.145 18.327a12 12 0 0 1-10.003 5.371H32v279.403c0 4.559 3.852 8.41 8.41 8.41zm358.492 45.631c.229-.101.465-.178.698-.264a99.602 99.602 0 0 1-36.143-8.358v24.192l35.444-15.57zM444 449.425a99.54 99.54 0 0 1-36.144 8.363c.233.086.469.163.698.264l35.445 15.57v-24.197zm-40.271-147.187c30.5 0 55.313 24.827 55.313 55.342s-24.813 55.313-55.313 55.313-55.342-24.813-55.342-55.313 24.826-55.342 55.342-55.342zm0 24c-17.282 0-31.342 14.06-31.342 31.342s14.06 31.313 31.342 31.313 31.313-14.047 31.313-31.313-14.047-31.342-31.313-31.342z" opacity="1" data-original="url(#a)" class=""/>
  </g>
</svg>
