<svg xmlns="http://www.w3.org/2000/svg" version="1.1" xmlns:xlink="http://www.w3.org/1999/xlink" width="512" height="512" x="0" y="0" viewBox="0 0 512 512" style="enable-background:new 0 0 512 512" xml:space="preserve" class=""><g><path d="m95.361 201.007 113.783 92.162v59.021a5.991 5.991 0 0 0 5.995 5.995c.414 0 .831-.042 1.243-.13l81.723-17.319a5.994 5.994 0 0 0 4.752-5.865v-41.702l113.755-92.162c17.385-1.151 31.18-15.666 31.18-33.352 0-18.42-14.986-33.406-33.406-33.406h-316.8c-18.42 0-33.406 14.986-33.406 33.406 0 17.687 13.795 32.201 31.181 33.352zm197.726 84.645a5.998 5.998 0 0 0-2.221 4.658v39.703l-69.732 14.778V290.31a5.993 5.993 0 0 0-2.222-4.659l-104.399-84.562h282.949l-104.375 84.562zM97.586 146.239h316.8c11.809 0 21.416 9.607 21.416 21.416s-9.607 21.444-21.416 21.444h-316.8c-11.809 0-21.416-9.62-21.416-21.444s9.607-21.416 21.416-21.416zm-2.92-27.496h93.628a5.994 5.994 0 0 0 5.995-5.995V89.192c0-16.005-11.267-28.523-30.057-34.21 4.418-6.59 6.927-14.784 6.927-22.682 0-18.577-14.931-28.297-29.679-28.297s-29.679 9.72-29.679 28.297c0 7.897 2.51 16.09 6.932 22.68-18.794 5.686-30.062 18.205-30.062 34.212v23.556a5.995 5.995 0 0 0 5.995 5.995zM141.48 15.994c4.73 0 9.263 1.522 12.435 4.177 3.486 2.918 5.254 6.999 5.254 12.129 0 11.217-7.552 23.894-17.675 24.164-10.139-.271-17.702-12.947-17.702-24.164 0-12.872 11.119-16.306 17.688-16.306zm-40.819 73.198c0-14.139 14.2-21.736 28.251-24.336 3.699 2.197 7.89 3.517 12.475 3.599h.214c4.579-.082 8.764-1.401 12.459-3.597 14.047 2.602 28.238 10.198 28.238 24.334v17.561H100.66V89.192zm108.496 29.551h93.657a5.994 5.994 0 0 0 5.995-5.995V89.192c0-16.012-11.276-28.534-30.081-34.217 4.415-6.589 6.922-14.78 6.922-22.675 0-18.577-14.923-28.297-29.665-28.297s-29.664 9.72-29.664 28.297c0 7.897 2.508 16.091 6.926 22.681-18.808 5.687-30.085 18.206-30.085 34.211v23.556a5.995 5.995 0 0 0 5.995 5.995zm46.828-102.749c4.727 0 9.255 1.522 12.424 4.176 3.484 2.918 5.251 6.999 5.251 12.13 0 11.217-7.552 23.894-17.675 24.164-10.123-.27-17.674-12.947-17.674-24.164 0-12.872 11.109-16.306 17.674-16.306zm-40.833 73.198c0-14.133 14.206-21.73 28.267-24.333 3.695 2.196 7.88 3.515 12.459 3.597h.214c4.582-.082 8.77-1.402 12.466-3.601 14.054 2.598 28.26 10.195 28.26 24.338v17.561h-81.667V89.193zm108.524 29.551h93.657a5.994 5.994 0 0 0 5.995-5.995V89.192c0-16.005-11.278-28.523-30.085-34.211 4.417-6.59 6.926-14.783 6.926-22.681 0-18.577-14.931-28.297-29.679-28.297s-29.679 9.72-29.679 28.297c0 7.897 2.511 16.09 6.932 22.68-18.794 5.686-30.063 18.205-30.063 34.212v23.556a5.995 5.995 0 0 0 5.995 5.995zM370.49 15.994c4.73 0 9.263 1.522 12.435 4.177 3.486 2.918 5.254 6.999 5.254 12.129 0 11.217-7.551 23.894-17.674 24.164-10.14-.271-17.703-12.947-17.703-24.164 0-12.872 11.119-16.306 17.688-16.306zm-40.819 73.198c0-14.139 14.2-21.736 28.251-24.336 3.7 2.198 7.89 3.517 12.475 3.599h.214c4.579-.082 8.764-1.4 12.459-3.597 14.061 2.604 28.267 10.201 28.267 24.333v17.561H329.67V89.191zm-73.687 280.672c-38.083 0-69.065 30.983-69.065 69.066s30.982 69.066 69.065 69.066 69.066-30.983 69.066-69.066-30.983-69.066-69.066-69.066zm0 126.142c-31.472 0-57.075-25.604-57.075-57.076s25.604-57.076 57.075-57.076 57.076 25.604 57.076 57.076-25.604 57.076-57.076 57.076zm26.064-42.902c0 10.394-8.579 19.123-20.069 21.417v2.792a5.995 5.995 0 1 1-11.99 0v-2.792c-11.491-2.294-20.069-11.022-20.069-21.417a5.995 5.995 0 1 1 11.99 0c0 5.432 6.445 10.021 14.074 10.021s14.074-4.589 14.074-10.021c0-6.367-4.001-8.18-16.023-10.395-3.864-.712-7.515-1.384-10.653-2.698-7.316-3.033-11.193-8.947-11.193-17.096 0-9.366 7.573-17.261 17.801-19.519v-2.875a5.995 5.995 0 1 1 11.99 0v2.874c10.229 2.258 17.802 10.153 17.802 19.519a5.995 5.995 0 1 1-11.99 0c0-4.433-5.407-8.178-11.807-8.178s-11.806 3.745-11.806 8.178c0 3.719 1.398 5.026 3.812 6.027 1.969.824 5.004 1.383 8.217 1.975 9.665 1.781 25.841 4.761 25.841 22.187zm164.966-62.791-14.769 25.54a5.996 5.996 0 0 1-5.19 2.994h-.003a5.993 5.993 0 0 1-5.189-2.998l-14.74-25.541a5.995 5.995 0 0 1 10.384-5.994l3.553 6.156V262.927a5.995 5.995 0 1 1 11.99 0v127.58l3.583-6.196a5.995 5.995 0 1 1 10.38 6.002zm-342.168-.004-14.74 25.541a5.994 5.994 0 0 1-10.384 0l-14.74-25.541a5.995 5.995 0 0 1 10.384-5.994l3.553 6.156V262.928a5.995 5.995 0 1 1 11.99 0v127.543l3.553-6.156a5.995 5.995 0 1 1 10.384 5.994z" fill="#ff4500" opacity="1" data-original="#000000"></path></g></svg>