<svg xmlns="http://www.w3.org/2000/svg" version="1.1" xmlns:xlink="http://www.w3.org/1999/xlink" width="512" height="512" x="0" y="0" viewBox="0 0 512 512" style="enable-background:new 0 0 512 512" xml:space="preserve" class=""><g><path d="M260.64 385.76c0 8.62 9.48 13 17.43 15.16 16.96 4.6 26.29 14.1 26.29 26.74 0 12.76-9.37 23.45-21.86 26.09v7.99c0 3.31-2.69 6-6 6s-6-2.69-6-6v-7.99c-12.49-2.64-21.86-13.33-21.86-26.09 0-3.31 2.69-6 6-6s6 2.69 6 6c0 8.12 7.12 14.72 15.86 14.72s15.86-6.6 15.86-14.72c0-8.62-9.48-13-17.43-15.16-16.95-4.6-26.29-14.09-26.29-26.74 0-12.76 9.37-23.45 21.86-26.09v-7.99c0-3.31 2.69-6 6-6s6 2.69 6 6v7.99c12.49 2.64 21.86 13.33 21.86 26.09 0 3.31-2.69 6-6 6s-6-2.69-6-6c0-8.12-7.12-14.72-15.86-14.72-8.75 0-15.86 6.6-15.86 14.72zm-74.96-112.62c0 22.32-18.16 40.48-40.48 40.48s-40.48-18.16-40.48-40.48 18.16-40.48 40.48-40.48 40.48 18.16 40.48 40.48zm-12 0c0-15.71-12.78-28.48-28.48-28.48s-28.48 12.78-28.48 28.48 12.78 28.48 28.48 28.48 28.48-12.78 28.48-28.48zM457 167.1c0 13.7-11.15 24.85-24.85 24.85h-12.53l-63.57 135.2-3.46 30.99c8.99 14.03 14.2 30.7 14.2 48.57 0 49.79-40.51 90.29-90.29 90.29s-90.29-40.51-90.29-90.29c0-17.86 5.22-34.53 14.2-48.57l-1.36-12.17c-1.61.8-3.38 1.23-5.23 1.23-3.14 0-6.09-1.22-8.31-3.44l-9.75-9.75a69.166 69.166 0 0 1-9.13 3.79v13.78c0 6.48-5.27 11.75-11.75 11.75h-19.36c-6.48 0-11.75-5.27-11.75-11.75V337.8a68.61 68.61 0 0 1-9.13-3.79l-9.75 9.75c-2.22 2.22-5.17 3.44-8.31 3.44s-6.09-1.22-8.31-3.44l-13.69-13.69c-2.22-2.22-3.44-5.17-3.44-8.31s1.22-6.09 3.44-8.31l9.75-9.75a69.731 69.731 0 0 1-3.79-9.13H66.75c-6.48 0-11.75-5.27-11.75-11.75v-19.36c0-6.48 5.27-11.75 11.75-11.75h13.78a68.61 68.61 0 0 1 3.79-9.13l-9.75-9.75c-2.22-2.22-3.44-5.17-3.44-8.31s1.22-6.09 3.44-8.31l13.69-13.69c4.58-4.58 12.04-4.58 16.62 0l9.75 9.75a68.61 68.61 0 0 1 9.13-3.79v-16.53h-2.91c-13.7 0-24.85-11.15-24.85-24.85s11.15-24.85 24.85-24.85h311.3c13.71 0 24.85 11.14 24.85 24.85zm-263.18 168 13.34-13.34-9.7-9.7c-3.6-3.6-4.48-9.07-2.17-13.62 1.27-2.51 2.36-5.13 3.23-7.79a11.74 11.74 0 0 1 11.17-8.08h13.71V263.7h-13.71c-5.09 0-9.58-3.25-11.17-8.08-.87-2.66-1.96-5.28-3.23-7.79a11.733 11.733 0 0 1 2.17-13.62l9.7-9.7-13.34-13.34-9.7 9.7c-3.6 3.6-9.07 4.48-13.62 2.17a55.603 55.603 0 0 0-7.79-3.23 11.74 11.74 0 0 1-8.08-11.17v-16.71h-18.86v16.71c0 5.09-3.25 9.58-8.08 11.17a56.83 56.83 0 0 0-7.79 3.23 11.717 11.717 0 0 1-13.62-2.18l-9.7-9.7-13.34 13.34 9.7 9.7c3.6 3.6 4.48 9.07 2.17 13.62-1.27 2.5-2.35 5.12-3.23 7.79a11.74 11.74 0 0 1-11.17 8.08H67v18.86h13.71c5.09 0 9.58 3.25 11.17 8.08a56.83 56.83 0 0 0 3.23 7.79c2.3 4.54 1.43 10.01-2.17 13.62l-9.7 9.7 13.34 13.34 9.7-9.7c3.6-3.6 9.07-4.48 13.62-2.17 2.5 1.27 5.12 2.35 7.79 3.23a11.74 11.74 0 0 1 8.08 11.17v13.72h18.86v-13.71c0-5.09 3.25-9.58 8.08-11.17 2.66-.87 5.28-1.96 7.79-3.23a11.73 11.73 0 0 1 13.62 2.17zm160.98 71.61c0-43.17-35.12-78.29-78.29-78.29s-78.29 35.12-78.29 78.29S233.33 485 276.5 485s78.3-35.12 78.3-78.29zm51.56-214.76H166.63v16.53a68.61 68.61 0 0 1 9.13 3.79l9.75-9.75c4.58-4.58 12.04-4.58 16.62 0l13.69 13.69c4.58 4.58 4.58 12.04 0 16.62l-9.75 9.75c1.48 2.95 2.76 6.02 3.79 9.13h13.78c6.48 0 11.75 5.27 11.75 11.75v19.36c0 6.48-5.27 11.75-11.75 11.75h-13.78a68.61 68.61 0 0 1-3.79 9.13l9.75 9.75c2.22 2.22 3.44 5.17 3.44 8.31s-1.22 6.09-3.44 8.31l-5.82 5.82.98 8.75c16.47-17.38 39.75-28.23 65.52-28.23s49.06 10.86 65.52 28.23l2.21-19.81c.07-.65.25-1.29.53-1.89zM445 167.1c0-7.09-5.76-12.85-12.85-12.85h-311.3c-7.09 0-12.85 5.76-12.85 12.85s5.76 12.85 12.85 12.85h311.3c7.09 0 12.85-5.77 12.85-12.85zM224.89 66.61c0-28.46 23.15-51.61 51.61-51.61s51.61 23.15 51.61 51.61-23.15 51.61-51.61 51.61-51.61-23.15-51.61-51.61zm12 0c0 21.84 17.77 39.61 39.61 39.61s39.61-17.77 39.61-39.61S298.35 27 276.5 27s-39.61 17.77-39.61 39.61zm35.37 232.95a5.991 5.991 0 0 0 8.48 0l20.02-20.02c2.34-2.34 2.34-6.14 0-8.49s-6.14-2.34-8.49 0l-9.78 9.78v-73.35c0-3.31-2.69-6-6-6s-6 2.69-6 6v73.35l-9.78-9.78c-2.34-2.34-6.14-2.34-8.48 0a6 6 0 0 0 0 8.48zM131.38 93.64c0-21.88 17.8-39.68 39.68-39.68s39.68 17.8 39.68 39.68-17.8 39.68-39.68 39.68-39.68-17.8-39.68-39.68zm12 0c0 15.26 12.42 27.68 27.68 27.68s27.68-12.42 27.68-27.68-12.42-27.68-27.68-27.68-27.68 12.42-27.68 27.68zm198.88 0c0-21.88 17.8-39.68 39.68-39.68s39.68 17.8 39.68 39.68-17.8 39.68-39.68 39.68-39.68-17.8-39.68-39.68zm12 0c0 15.26 12.42 27.68 27.68 27.68s27.68-12.42 27.68-27.68-12.42-27.68-27.68-27.68-27.68 12.42-27.68 27.68z" fill="#d50a0a" opacity="1" data-original="#000000"></path></g></svg>