<svg xmlns="http://www.w3.org/2000/svg" version="1.1" xmlns:xlink="http://www.w3.org/1999/xlink" width="512" height="512" x="0" y="0" viewBox="0 0 66 66" style="enable-background:new 0 0 512 512" xml:space="preserve" class=""><g><path d="M63.41 8.53a5.3 5.3 0 0 0-7.89.41l-12.89 15.6c-2.49-.54-4.69.57-6.23 3.22-.56.96-.94 2.08-1.13 3.33-.31 1.99-.93 3.71-1.91 5.25-.16.26-.18.58-.04.85s.42.44.72.45c.43.02.86.02 1.27.02 4.98 0 8.46-1.18 10.34-3.5 1.46-1.81 1.54-3.8 1.44-4.88l15.82-12.86a5.336 5.336 0 0 0 2.01-3.83c.11-1.51-.45-2.99-1.51-4.06zM46.46 22.58l2.78 2.78-2.86 2.32-2.26-2.27zm-2.14 10.53c-1.5 1.84-4.53 2.82-8.8 2.85.7-1.4 1.17-2.92 1.43-4.62.16-1.04.47-1.96.92-2.73.98-1.68 2.18-2.52 3.58-2.52.34 0 .7.05 1.07.15l2.86 2.88c.1.61.24 2.41-1.06 3.99zm17.55-18.02-.01.01-11.3 9.19-3.02-3.02 9.3-11.25c.64-.8 1.59-1.29 2.62-1.35s2.02.33 2.74 1.06 1.1 1.73 1.04 2.75-.56 1.97-1.37 2.61z" fill="#d50a0a" opacity="1" data-original="#000000" class=""></path><circle cx="28.55" cy="46.04" r=".97" fill="#d50a0a" opacity="1" data-original="#000000" class=""></circle><path d="M18.53 12.96a.85.85 0 0 0-.85-.85H6.76a.85.85 0 0 0-.85.85v8.57c0 .47.38.85.85.85h10.92c.47 0 .85-.38.85-.85zm-1.7 7.71H7.61V13.8h9.22zM18.53 25.73a.85.85 0 0 0-.85-.85H6.76a.85.85 0 1 0 0 1.7h10.92c.47 0 .85-.38.85-.85zM6.76 28.7a.85.85 0 1 0 0 1.7h7.67a.85.85 0 1 0 0-1.7zM33.29 25.73a.85.85 0 0 0-.85-.85H21.52a.85.85 0 1 0 0 1.7h10.92c.47 0 .85-.38.85-.85zM21.52 28.7a.85.85 0 1 0 0 1.7h7.67a.85.85 0 1 0 0-1.7zM33.29 12.96a.85.85 0 0 0-.85-.85H21.52a.85.85 0 0 0-.85.85v8.57c0 .47.38.85.85.85h10.92c.47 0 .85-.38.85-.85zm-1.7 7.71h-9.22V13.8h9.22z" fill="#d50a0a" opacity="1" data-original="#000000" class=""></path><path d="M56.05 26.61a.85.85 0 1 0-1.7 0v15.07H2.75v-29.7c0-1.85 1.5-3.36 3.35-3.36h44.89c.34 0 .69.06 1.08.2.44.15.93-.09 1.08-.53s-.09-.93-.53-1.08c-.57-.19-1.1-.29-1.63-.29H6.1c-2.78 0-5.05 2.27-5.05 5.06v33.34c0 2.79 2.27 5.06 5.05 5.06h15.71l-1.3 3.1h-3.73a2.791 2.791 0 0 0 0 5.58h23.55a2.791 2.791 0 0 0 0-5.58H36.6l-1.3-3.1H51c2.78 0 5.05-2.26 5.05-5.04v-2.81zM41.42 56.28c0 .6-.49 1.09-1.09 1.09H16.78c-.6 0-1.09-.49-1.09-1.09s.49-1.09 1.09-1.09h23.55c.6 0 1.09.49 1.09 1.09zm-6.67-2.79h-12.4l1.3-3.1h9.8zm19.6-8.14c0 1.84-1.5 3.34-3.35 3.34H6.1c-1.85 0-3.35-1.51-3.35-3.36v-1.94h51.6z" fill="#d50a0a" opacity="1" data-original="#000000" class=""></path></g></svg>