<svg xmlns="http://www.w3.org/2000/svg" version="1.1" xmlns:xlink="http://www.w3.org/1999/xlink" width="512" height="512" x="0" y="0" viewBox="0 0 512 512" style="enable-background:new 0 0 512 512" xml:space="preserve"><g><path d="M136.89 357.81h-59.3c-42.51 0-77.1 34.58-77.1 77.07v58.59c0 10.21 8.3 18.51 18.51 18.51h176.49c10.21 0 18.51-8.3 18.51-18.51v-58.59c-.01-42.5-34.6-77.07-77.11-77.07zM198 493.47c0 1.37-1.16 2.52-2.52 2.52h-39.4v-56.35c0-4.42-3.58-7.99-7.99-7.99s-7.99 3.58-7.99 7.99V496H74.38v-56.35c0-4.42-3.58-7.99-7.99-7.99s-7.99 3.58-7.99 7.99V496H19c-1.37 0-2.52-1.16-2.52-2.52v-58.59c0-33.68 27.42-61.09 61.12-61.09h59.3c33.7 0 61.11 27.4 61.11 61.09v58.58zm144.73-243.2c1.73 0 3.48-.37 5.15-1.13 4.84-2.26 7.6-7.34 6.87-12.65l-4.86-35.31h33.37c16.22 0 29.42-13.19 29.42-29.4V63.06c0-16.21-13.2-29.4-29.42-29.4h-34.01v-4.25c0-16.21-13.19-29.4-29.4-29.4h-191.1c-16.22 0-29.42 13.19-29.42 29.4v108.71c0 16.22 13.2 29.42 29.42 29.42h33.37l-4.86 35.29c-.74 5.24 1.98 10.31 6.77 12.62.05.02.1.05.15.07 1.63.74 3.35 1.11 5.05 1.11 3.34 0 6.63-1.39 9.03-4.01l10.52-11.65c1.13.13 2.26.22 3.39.22h100.87l40.75 45.14a12.08 12.08 0 0 0 8.94 3.94zm-167.04-94.58c-2.34-2.67-5.58-4.13-9.12-4.13h-37.81c-7.41 0-13.44-6.03-13.44-13.44V29.41c0-7.39 6.03-13.41 13.44-13.41h191.08c7.39 0 13.41 6.01 13.41 13.41v108.71c0 7.41-6.01 13.44-13.41 13.44H217.25c-3.47 0-6.66 1.42-8.99 4L180.3 186.5c-.23.22-.44.46-.64.71l-4.85 5.36 3.75-27.24c.5-3.53-.52-6.95-2.87-9.64zm119.06 29.51h-91.73l15.95-17.66h100.87c16.21 0 29.4-13.2 29.4-29.42V49.65h34.01c7.41 0 13.44 6.01 13.44 13.41V171.8c0 7.39-6.03 13.41-13.44 13.41h-37.81c-3.54 0-6.78 1.47-9.12 4.13-.03.04-.06.07-.09.11-2.28 2.69-3.27 6.07-2.79 9.52l3.76 27.28-33.46-37.06c-2.34-2.57-5.53-3.99-8.99-3.99zm139.66 172.61h-59.3c-42.51 0-77.1 34.58-77.1 77.07v58.59c0 10.21 8.3 18.51 18.51 18.51H493c10.21 0 18.51-8.3 18.51-18.51v-58.59c.01-42.5-34.58-77.07-77.1-77.07zm61.12 135.66c0 1.37-1.16 2.52-2.52 2.52h-39.4v-56.35c0-4.42-3.58-7.99-7.99-7.99s-7.99 3.58-7.99 7.99V496h-65.71v-56.35c0-4.42-3.58-7.99-7.99-7.99s-7.99 3.58-7.99 7.99V496h-39.4c-1.37 0-2.52-1.16-2.52-2.52v-58.59c0-33.68 27.42-61.09 61.11-61.09h59.3c33.7 0 61.12 27.4 61.12 61.09v58.58zM107.24 355.03c31.31 0 56.78-25.47 56.78-56.78s-25.47-56.78-56.78-56.78-56.78 25.47-56.78 56.78 25.47 56.78 56.78 56.78zm0-97.57c22.49 0 40.79 18.3 40.79 40.79s-18.3 40.79-40.79 40.79-40.79-18.3-40.79-40.79 18.3-40.79 40.79-40.79zm240.74 40.79c0 31.31 25.47 56.78 56.78 56.78s56.78-25.47 56.78-56.78-25.47-56.78-56.78-56.78c-31.3 0-56.78 25.47-56.78 56.78zm97.57 0c0 22.49-18.3 40.79-40.79 40.79s-40.79-18.3-40.79-40.79 18.3-40.79 40.79-40.79 40.79 18.3 40.79 40.79zM146.98 57.08c0-4.42 3.58-7.99 7.99-7.99h138.62c4.42 0 7.99 3.58 7.99 7.99s-3.58 7.99-7.99 7.99H154.97c-4.41 0-7.99-3.58-7.99-7.99zm88.67 61.4h-80.67c-4.42 0-7.99-3.58-7.99-7.99s3.58-7.99 7.99-7.99h80.67c4.42 0 7.99 3.58 7.99 7.99s-3.58 7.99-7.99 7.99z" fill="#ffffff" opacity="1" data-original="#000000"></path></g></svg>