<svg xmlns="http://www.w3.org/2000/svg" version="1.1" xmlns:xlink="http://www.w3.org/1999/xlink" width="512" height="512" x="0" y="0" viewBox="0 0 512.001 512.001" style="enable-background:new 0 0 512 512" xml:space="preserve" class=""><g><path d="M7.5 389.913h497.002M7.5 134.913h180.575m135.851 0h180.575M67.5 104.913h15m22.499 0h15m-89.999 0h15M399.501 104.913h82.5M218.501 472.412l22.5-52.499m52.5 52.499-22.5-52.499M338.502 502.412h37.5v-30H136v30h187.502M312.424 74.914H504.5v344.999H7.5v-232.5m0-15V74.914h192.076" style="fill-rule:evenodd;clip-rule:evenodd;stroke-width:15;stroke-miterlimit:22.9256;" fill-rule="evenodd" clip-rule="evenodd" fill="none" stroke="#ff4500" stroke-width="15" stroke-miterlimit="22.9256" data-original="#000000" opacity="1" class=""></path><path d="M222.121 267.949C166.352 166.31 179.766 48.411 256 10.466c76.234 37.945 89.649 155.844 33.879 257.483l-6.776 34.603h-54.207l-6.775-34.603zM222.121 267.949h67.758" style="fill-rule:evenodd;clip-rule:evenodd;stroke-width:15;stroke-miterlimit:22.9256;" fill-rule="evenodd" clip-rule="evenodd" fill="none" stroke="#ff4500" stroke-width="15" stroke-miterlimit="22.9256" data-original="#000000" opacity="1" class=""></path><path d="m190.629 175.992-31.835 21.25v75.722l51.626-28.844M321.371 175.992l31.836 21.25v75.722L301.58 244.12" style="fill-rule:evenodd;clip-rule:evenodd;stroke-width:15;stroke-miterlimit:22.9256;" fill-rule="evenodd" clip-rule="evenodd" fill="none" stroke="#ff4500" stroke-width="15" stroke-miterlimit="22.9256" data-original="#000000" opacity="1" class=""></path><circle cx="256" cy="145.26" r="28.469" style="fill-rule:evenodd;clip-rule:evenodd;stroke-width:15;stroke-miterlimit:22.9256;" transform="rotate(-22.488 255.975 145.249)" fill-rule="evenodd" clip-rule="evenodd" fill="none" stroke="#ff4500" stroke-width="15" stroke-miterlimit="22.9256" data-original="#000000" opacity="1" class=""></circle><path d="M283.104 302.552c0 18.107 6.141 27.289 16.077 34.982 16.851-12.583 40.972-9.106 51.068 8.698 25.647-6.601 46.466 18.626 33.704 43.681m-155.056-87.361c0 18.107-6.141 27.289-16.077 34.982-16.851-12.583-40.972-9.106-51.068 8.698-25.647-6.601-46.466 18.626-33.704 43.681M188.014 145.26h39.517m56.938 0h39.518M275.539 88.018h15m-30-30h15" style="fill-rule:evenodd;clip-rule:evenodd;stroke-width:15;stroke-miterlimit:22.9256;" fill-rule="evenodd" clip-rule="evenodd" fill="none" stroke="#ff4500" stroke-width="15" stroke-miterlimit="22.9256" data-original="#000000" opacity="1" class=""></path></g></svg>