<svg xmlns="http://www.w3.org/2000/svg" version="1.1" xmlns:xlink="http://www.w3.org/1999/xlink" width="512" height="512" x="0" y="0" viewBox="0 0 512 512" style="enable-background:new 0 0 512 512" xml:space="preserve"><g><path d="M312.055 504H91.172c-15.872 0-28.784-12.912-28.784-28.784V36.784C62.388 20.912 75.3 8 91.172 8h220.883c15.872 0 28.784 12.912 28.784 28.784v98.421a8 8 0 0 1-16 0V36.784c0-7.049-5.735-12.784-12.784-12.784H91.172c-7.049 0-12.784 5.735-12.784 12.784v438.432c0 7.049 5.735 12.784 12.784 12.784h220.883c7.049 0 12.784-5.735 12.784-12.784V368.813a8 8 0 0 1 16 0v106.402c0 15.873-12.912 28.785-28.784 28.785z" fill="#d50a0a" opacity="1" data-original="#000000"></path><path d="M265.5 54.887H137.727a7.999 7.999 0 0 1-7.608-5.527l-10.036-30.887a8.001 8.001 0 0 1 5.136-10.081c4.202-1.361 8.716.935 10.081 5.136l8.24 25.359h116.148l8.24-25.359a8.001 8.001 0 0 1 15.217 4.945L273.109 49.36a8.002 8.002 0 0 1-7.609 5.527zM219.861 469.75h-36.496c-11.939 0-21.653-9.714-21.653-21.653s9.714-21.653 21.653-21.653h36.496c11.939 0 21.653 9.714 21.653 21.653s-9.713 21.653-21.653 21.653zm-36.496-27.307c-3.117 0-5.653 2.536-5.653 5.653s2.536 5.653 5.653 5.653h36.496c3.117 0 5.653-2.536 5.653-5.653s-2.536-5.653-5.653-5.653zM300.293 381.232c-71.254 0-129.223-57.97-129.223-129.224s57.969-129.223 129.223-129.223c33.58 0 65.396 12.818 89.586 36.094l-11.094 11.529c-21.194-20.393-49.07-31.623-78.492-31.623-62.432 0-113.223 50.791-113.223 113.223s50.791 113.224 113.223 113.224 113.224-50.792 113.224-113.224c0-19.292-4.935-38.335-14.271-55.07l13.973-7.795c10.662 19.112 16.298 40.852 16.298 62.865 0 71.255-57.97 129.224-129.224 129.224z" fill="#d50a0a" opacity="1" data-original="#000000"></path><path d="M296.282 314.137c-6.652 0-13.306-2.532-18.37-7.597l-39.841-39.84c-10.129-10.129-10.129-26.611 0-36.741 10.131-10.129 26.613-10.13 36.742-.001l21.119 21.118L404.987 129.68c.086-.096.175-.189.266-.281 4.873-4.923 11.375-7.648 18.309-7.675l.104-.001c6.907 0 13.402 2.68 18.301 7.551 10.126 10.07 10.179 26.523.119 36.676-11.556 11.663-37.098 40.427-61.799 68.242-26.164 29.464-53.218 59.931-65.634 72.347-5.064 5.065-11.717 7.598-18.371 7.598zm-39.839-75.783a9.953 9.953 0 0 0-7.059 2.919c-3.891 3.891-3.891 10.223.001 14.113l39.84 39.84c3.891 3.893 10.223 3.893 14.113 0 12.081-12.081 38.976-42.367 64.984-71.656 25.987-29.265 50.533-56.906 62.397-68.881 3.861-3.897 3.846-10.209-.036-14.069a9.894 9.894 0 0 0-7.021-2.896h-.04a9.84 9.84 0 0 0-6.883 2.815L302.195 268.048a8 8 0 0 1-5.737 2.65 8.024 8.024 0 0 1-5.87-2.34l-27.087-27.086a9.954 9.954 0 0 0-7.058-2.918z" fill="#d50a0a" opacity="1" data-original="#000000"></path></g></svg>