<svg xmlns="http://www.w3.org/2000/svg" version="1.1" xmlns:xlink="http://www.w3.org/1999/xlink" width="512" height="512" x="0" y="0" viewBox="0 0 60 60" style="enable-background:new 0 0 512 512" xml:space="preserve" class=""><g><path d="M53 0H7C3.141 0 0 3.141 0 7v36c0 3.859 3.141 7 7 7h15v4h-5c-1.654 0-3 1.346-3 3s1.346 3 3 3h26c1.654 0 3-1.346 3-3s-1.346-3-3-3h-5v-4h15c3.859 0 7-3.141 7-7V7c0-3.859-3.141-7-7-7zm-9 57a1 1 0 0 1-1 1H17a1 1 0 0 1 0-2h26a1 1 0 0 1 1 1zm-8-3H24v-4h12zm17-6H7c-2.757 0-5-2.243-5-5v-1h56v1c0 2.757-2.243 5-5 5zm5-8H2V7c0-2.757 2.243-5 5-5h46c2.757 0 5 2.243 5 5z" fill="#d50a0a" opacity="1" data-original="#000000" class=""></path><path d="M30 9C18.421 9 9 18.421 9 30c0 .102.017.2.047.294A2.005 2.005 0 0 0 11.026 32h7.975a2 2 0 0 0 2-1.997c0-2.403.936-4.664 2.636-6.365A8.942 8.942 0 0 1 30.001 21c2.743 0 5.33 1.278 7.029 3.396-2.224.619-4.362 1.235-6.006 1.753A3.94 3.94 0 0 0 30 26c-2.206 0-4 1.794-4 4s1.794 4 4 4a3.988 3.988 0 0 0 3.404-1.927 200.03 200.03 0 0 0 5.547-2.884c.025.269.048.539.048.808 0 1.104.897 2.004 2 2.004h7.975c.996 0 1.826-.734 1.976-1.689a.998.998 0 0 0 .05-.311c0-11.579-9.421-21-21-21zm-12.688 6.898A18.898 18.898 0 0 1 29 11.05v7.998a10.89 10.89 0 0 0-6.036 2.501l-5.652-5.652zM19 30h-7.975a.961.961 0 0 0-.024-.208c.052-4.797 1.906-9.16 4.896-12.481l5.653 5.653A10.905 10.905 0 0 0 19 30zm12-10.933V11.05a18.897 18.897 0 0 1 11.688 4.847l-5.67 5.67a11.026 11.026 0 0 0-6.019-2.5zm11.536 5.901c-2.755 1.509-6.021 3.277-8.581 4.589a3.952 3.952 0 0 0-.789-1.973c2.231-.665 5.323-1.528 9.37-2.616zM30 32c-1.103 0-2-.897-2-2s.897-2 2-2 2 .897 2 2-.897 2-2 2zm18.975-2L41 29.996c0-.607-.07-1.215-.172-1.82a752.312 752.312 0 0 0 4.153-2.269 1.769 1.769 0 0 0 .795-2.24c-.344-.858-1.233-1.309-2.12-1.069-1.378.367-2.962.793-4.579 1.234a11.008 11.008 0 0 0-.641-.855l5.666-5.666c2.989 3.318 4.843 7.679 4.896 12.473a.966.966 0 0 0-.024.216zM31 44h-2a1 1 0 1 0 0 2h2a1 1 0 1 0 0-2z" fill="#d50a0a" opacity="1" data-original="#000000" class=""></path></g></svg>