<svg xmlns="http://www.w3.org/2000/svg" version="1.1" xmlns:xlink="http://www.w3.org/1999/xlink" width="512" height="512" x="0" y="0" viewBox="0 0 512 512" style="enable-background:new 0 0 512 512" xml:space="preserve" class=""><g><g fill-rule="evenodd" clip-rule="evenodd"><path d="M256 221.867a8.533 8.533 0 0 1-2.907-16.553 8.533 8.533 0 0 1 10.306 3.753 8.533 8.533 0 0 0 14.771-8.534 25.548 25.548 0 0 0-13.636-11.093v-1.707a8.533 8.533 0 0 0-17.066 0v1.57c-11.747 4.137-18.796 16.144-16.686 28.418s12.765 21.236 25.219 21.212a8.533 8.533 0 0 1 2.907 16.553 8.533 8.533 0 0 1-10.306-3.753 8.533 8.533 0 0 0-14.771 8.534 25.548 25.548 0 0 0 13.636 11.093v1.707a8.533 8.533 0 0 0 17.066 0v-1.57c11.747-4.137 18.796-16.144 16.686-28.418S268.454 221.843 256 221.867zM215.834 335.3 204.8 346.334l-2.5-2.5a8.533 8.533 0 0 0-11.962.104 8.533 8.533 0 0 0-.104 11.962l8.533 8.533a8.534 8.534 0 0 0 12.066 0l17.067-17.067a8.534 8.534 0 0 0-12.066-12.066zM62.234 232.9 51.2 243.934l-2.5-2.5a8.533 8.533 0 0 0-11.962.104 8.533 8.533 0 0 0-.104 11.962l8.533 8.533a8.534 8.534 0 0 0 12.066 0L74.3 244.966A8.534 8.534 0 0 0 62.234 232.9zM62.234 284.1 51.2 295.134l-2.5-2.5a8.533 8.533 0 0 0-11.962.104 8.533 8.533 0 0 0-.104 11.962l8.533 8.533a8.534 8.534 0 0 0 12.066 0L74.3 296.166A8.534 8.534 0 0 0 62.234 284.1zM315.733 341.333H256a8.533 8.533 0 0 0 0 17.066h59.733a8.533 8.533 0 0 0 0-17.066zM215.834 386.5 204.8 397.534l-2.5-2.5a8.533 8.533 0 0 0-11.962.104 8.533 8.533 0 0 0-.104 11.962l8.533 8.533a8.534 8.534 0 0 0 12.066 0l17.067-17.067a8.534 8.534 0 0 0-12.066-12.066zM315.733 392.533H256a8.533 8.533 0 0 0 0 17.066h59.733a8.533 8.533 0 0 0 0-17.066zM215.834 437.7 204.8 448.734l-2.5-2.5a8.533 8.533 0 0 0-11.962.104 8.533 8.533 0 0 0-.104 11.962l8.533 8.533a8.534 8.534 0 0 0 12.066 0l17.067-17.067a8.534 8.534 0 0 0-12.066-12.066zM315.733 443.733H256a8.533 8.533 0 0 0 0 17.066h59.733c4.713 0 8.533-3.82 8.533-8.533s-3.82-8.533-8.533-8.533zM102.4 119.467a8.533 8.533 0 0 1-2.907-16.553 8.533 8.533 0 0 1 10.306 3.753 8.533 8.533 0 0 0 14.771-8.534 25.548 25.548 0 0 0-13.636-11.093v-1.707a8.533 8.533 0 0 0-17.066 0v1.57c-11.747 4.137-18.796 16.144-16.686 28.418s12.765 21.236 25.219 21.212a8.533 8.533 0 0 1 2.907 16.553 8.533 8.533 0 0 1-10.306-3.753 8.533 8.533 0 0 0-14.771 8.534 25.548 25.548 0 0 0 13.636 11.093v1.707a8.533 8.533 0 0 0 17.066 0v-1.57c11.747-4.137 18.796-16.144 16.686-28.418s-12.765-21.236-25.219-21.212z" fill="#ff4500" opacity="1" data-original="#000000" class=""></path></g><path d="M477.867 0H341.333C322.482 0 307.2 15.282 307.2 34.133V102.4H204.8V34.133C204.8 15.282 189.518 0 170.667 0H34.133C15.282 0 0 15.282 0 34.133v341.333C0 394.318 15.282 409.6 34.133 409.6H153.6v68.267c0 18.851 15.282 34.133 34.133 34.133h136.533c18.851 0 34.133-15.282 34.133-34.133V409.6h119.467c18.851 0 34.133-15.282 34.133-34.133V34.133C512 15.282 496.718 0 477.867 0zM341.333 17.067h136.533c9.426 0 17.067 7.641 17.067 17.067v8.533H324.267v-8.533c0-9.426 7.641-17.067 17.066-17.067zm-17.066 42.666h170.667v136.533H358.4v-59.733c0-18.851-15.282-34.133-34.133-34.133zm0 59.734c9.426 0 17.067 7.641 17.067 17.067v8.533H170.667v-8.533c0-9.426 7.641-17.067 17.067-17.067zm-153.6 42.666h170.667v136.533H170.667zm-17.067-25.6v59.733H17.067V59.733h170.667V102.4c-18.852 0-34.134 15.282-34.134 34.133zM34.133 17.067h136.533c9.426 0 17.067 7.641 17.067 17.067v8.533H17.067v-8.533c0-9.426 7.641-17.067 17.066-17.067zm0 375.466c-9.426 0-17.067-7.641-17.067-17.067V213.333H153.6v25.6h-51.2a8.533 8.533 0 0 0 0 17.066h51.2v34.133h-51.2a8.533 8.533 0 0 0 0 17.066h51.2v34.133h-51.2a8.533 8.533 0 0 0 0 17.066h51.2v34.133H34.133zm307.2 85.334c0 9.426-7.641 17.067-17.067 17.067H187.733c-9.426 0-17.067-7.641-17.067-17.067V315.733h170.667zm136.534-85.334H358.4V358.4h8.533a8.533 8.533 0 0 0 0-17.066H358.4V307.2h8.533c4.713 0 8.533-3.82 8.533-8.533s-3.82-8.533-8.533-8.533H358.4v-30.601l14.566-14.566a8.533 8.533 0 0 0-.104-11.962 8.533 8.533 0 0 0-11.962-.104l-2.5 2.5v-22.067h136.533v162.133c0 9.425-7.641 17.066-17.066 17.066z" fill="#ff4500" opacity="1" data-original="#000000" class=""></path><path fill-rule="evenodd" d="M409.6 136.533a8.533 8.533 0 0 1 2.907 16.553 8.533 8.533 0 0 1-10.306-3.753 8.533 8.533 0 0 0-14.771 8.534 25.548 25.548 0 0 0 13.636 11.093v1.707a8.533 8.533 0 0 0 17.066 0v-1.57c11.747-4.137 18.796-16.144 16.686-28.418s-12.765-21.236-25.219-21.212a8.533 8.533 0 0 1-2.907-16.553 8.533 8.533 0 0 1 10.306 3.753 8.533 8.533 0 0 0 14.771-8.534 25.536 25.536 0 0 0-13.636-11.093v-1.707a8.533 8.533 0 0 0-17.066 0v1.57c-11.747 4.137-18.796 16.144-16.686 28.418s12.765 21.236 25.219 21.212zM469.333 238.933H409.6a8.533 8.533 0 0 0 0 17.066h59.733a8.533 8.533 0 0 0 8.533-8.533 8.533 8.533 0 0 0-8.533-8.533zM469.333 290.133H409.6a8.533 8.533 0 0 0 0 17.066h59.733c4.713 0 8.533-3.82 8.533-8.533s-3.82-8.533-8.533-8.533zM469.333 341.333H409.6a8.533 8.533 0 0 0 0 17.066h59.733a8.533 8.533 0 0 0 0-17.066zM59.733 341.333H42.667a8.533 8.533 0 0 0 0 17.066h17.067a8.533 8.533 0 1 0-.001-17.066z" clip-rule="evenodd" fill="#ff4500" opacity="1" data-original="#000000" class=""></path></g></svg>