<svg id="Layer_1" viewBox="0 0 512 512" xmlns="http://www.w3.org/2000/svg" xmlns:xlink="http://www.w3.org/1999/xlink" data-name="Layer 1"><linearGradient id="linear-gradient" gradientUnits="userSpaceOnUse" x1="21.812" x2="486.794" y1="13.194" y2="478.177"><stop offset="0" stop-color="#ffc23c"/><stop offset="1" stop-color="#ff5a5e"/></linearGradient><path d="m46.618 68.274c0-6.605 5.386-11.991 11.991-11.991s12.019 5.386 12.019 11.991-5.414 12.019-12.019 12.019-11.991-5.386-11.991-12.019zm49.579 12.019c6.633 0 12.019-5.386 12.019-12.019s-5.386-11.991-12.019-11.991-11.991 5.386-11.991 11.991 5.386 12.019 11.991 12.019zm37.616 0c6.605 0 11.991-5.386 11.991-12.019s-5.386-11.991-11.991-11.991-12.019 5.386-12.019 11.991 5.386 12.019 12.019 12.019zm174.568 229.891c0-6.627-5.373-12-12-12h-217.42c-6.627 0-12 5.373-12 12s5.373 12 12 12h217.419c6.627 0 12-5.373 12-12zm-155.944 27.855h-73.475c-6.627 0-12 5.373-12 12s5.373 12 12 12h73.475c6.627 0 12-5.373 12-12s-5.373-12-12-12zm-73.475-54.124h29.282c6.627 0 12-5.373 12-12s-5.373-12-12-12h-29.282c-6.627 0-12 5.373-12 12s5.373 12 12 12zm240.493-24h-169.598c-6.627 0-12 5.373-12 12s5.373 12 12 12h169.598c6.627 0 12-5.373 12-12s-5.373-12-12-12zm-252.493-29.018v-58.507c0-6.627 5.373-12 12-12h303.763c6.627 0 12 5.373 12 12v58.507c0 6.627-5.373 12-12 12h-303.764c-6.627 0-12-5.373-12-12zm24-12h279.763v-34.507h-279.764v34.507zm377.039 215.604v57.497c0 4.053-2.046 7.832-5.439 10.048-1.98 1.293-4.266 1.952-6.562 1.952-1.638 0-3.28-.335-4.825-1.013l-47.445-20.841-47.444 20.841c-3.71 1.63-7.993 1.276-11.387-.939-3.394-2.216-5.439-5.995-5.439-10.048v-55.579h-299.05c-17.871 0-32.41-14.539-32.41-32.41v-363.6c0-17.871 14.539-32.409 32.41-32.409h380.837c17.87 0 32.409 14.539 32.409 32.409v230.212c30.063 17.338 50.344 49.824 50.344 86.959 0 30.862-14.011 58.509-36 76.922zm-64.271-153.223c-42.072 0-76.3 34.228-76.3 76.3s34.228 76.3 76.3 76.3 76.271-34.228 76.271-76.3-34.215-76.3-76.271-76.3zm-371.73-240.869v60.199h133.977l12.145-18.327c2.223-3.354 5.979-5.371 10.003-5.371h241.532v-36.501c0-4.637-3.772-8.409-8.409-8.409h-380.838c-4.638 0-8.41 3.772-8.41 8.409zm8.41 372.012h279.382c-10.339-15.772-16.363-34.615-16.363-54.841 0-55.306 44.994-100.3 100.3-100.3 8.964 0 17.654 1.189 25.928 3.407v-159.777h-235.089l-12.145 18.327c-2.223 3.354-5.979 5.371-10.003 5.371h-140.42v279.403c0 4.559 3.852 8.41 8.41 8.41zm358.492 45.631c.229-.101.465-.178.698-.264-12.807-.521-25.001-3.454-36.143-8.358v24.192l35.444-15.57zm45.098-8.627c-11.141 4.907-23.336 7.842-36.144 8.363.233.086.469.163.698.264l35.445 15.57v-24.197zm-40.271-147.187c30.5 0 55.313 24.827 55.313 55.342s-24.813 55.313-55.313 55.313-55.342-24.813-55.342-55.313 24.826-55.342 55.342-55.342zm0 24c-17.282 0-31.342 14.06-31.342 31.342s14.06 31.313 31.342 31.313 31.313-14.047 31.313-31.313-14.047-31.342-31.313-31.342z" fill="url(#linear-gradient)"/></svg>