<svg xmlns="http://www.w3.org/2000/svg" version="1.1" xmlns:xlink="http://www.w3.org/1999/xlink" width="512" height="512" x="0" y="0" viewBox="0 0 48 48" style="enable-background:new 0 0 512 512" xml:space="preserve" fill-rule="evenodd" class=""><g><path d="M6 40h-.5A3.501 3.501 0 0 0 2 43.5v1C2 46.432 3.568 48 5.5 48h37c1.932 0 3.5-1.568 3.5-3.5v-1c0-1.932-1.568-3.5-3.5-3.5H42V16c0-1.656-1.344-3-3-3h-4a1 1 0 0 0 0 2h4a1 1 0 0 1 1 1v24H8V16a1 1 0 0 1 1-1h4a1 1 0 0 0 0-2H9c-1.656 0-3 1.344-3 3zm-.5 2h37a1.5 1.5 0 0 1 1.5 1.5v1a1.5 1.5 0 0 1-1.5 1.5h-37A1.5 1.5 0 0 1 4 44.5v-1A1.5 1.5 0 0 1 5.5 42zm10.417-24.626L12.91 21.65a5.004 5.004 0 0 0-.91 2.876V33a1 1 0 0 0 1 1h1.391a.999.999 0 0 0 .834-.448l3.761-5.677.025.045a.999.999 0 0 0 .874.515h.898V33a1 1 0 0 0 1 1h4.174a1 1 0 0 0 1-1v-4.565h.897a1 1 0 0 0 .875-.515l.045-.083 4.015 5.736a1 1 0 0 0 .82.427H35a1 1 0 0 0 1-1v-8.406a5.002 5.002 0 0 0-1-3l-3.178-4.236c.003-.119.004-.238.004-.358 0-6.459-2.399-12.059-4.654-14.843C25.992.702 24.757 0 23.87 0s-2.123.702-3.303 2.157C18.312 4.941 15.913 10.541 15.913 17c0 .125.001.25.004.374zM24.957 32h-2.174v-9.435a1.087 1.087 0 0 1 2.174 0zm6.572-11.701c-.353 1.983-.987 3.841-1.737 5.505L34 31.815v-7.221c0-.649-.211-1.281-.6-1.8zm-15.299.107-1.684 2.395A3.001 3.001 0 0 0 14 24.526v7.254l3.952-5.965c-.738-1.637-1.365-3.461-1.722-5.409zM27.677 6.87h-7.615c-1.221 2.699-2.149 6.248-2.149 10.13 0 3.562 1.197 6.837 2.568 9.435h.302v-3.87a3.088 3.088 0 0 1 6.174 0v3.87h.302c1.37-2.598 2.567-5.873 2.567-9.435 0-3.882-.928-7.431-2.149-10.13zm-3.807.782c-.886 0-1.719.403-2.383 1.133-.831.914-1.4 2.379-1.4 4.041s.569 3.127 1.4 4.041c.664.73 1.497 1.133 2.383 1.133.885 0 1.718-.403 2.382-1.133.831-.914 1.4-2.379 1.4-4.041s-.569-3.127-1.4-4.041c-.664-.73-1.497-1.133-2.382-1.133zm0 2c.456 0 .836.329 1.135.778.408.613.647 1.462.647 2.396s-.239 1.784-.647 2.396c-.299.449-.679.778-1.135.778-.457 0-.836-.329-1.136-.778-.408-.612-.647-1.462-.647-2.396s.239-1.783.647-2.396c.3-.449.679-.778 1.136-.778zm2.759-4.782a13.127 13.127 0 0 0-1.011-1.453c-.396-.489-.783-.876-1.15-1.136-.224-.159-.417-.281-.598-.281-.182 0-.375.122-.598.281-.367.26-.755.647-1.151 1.136-.338.417-.678.904-1.011 1.453z" fill="#ffffff" opacity="1" data-original="#000000" class=""></path></g></svg>