<svg xmlns="http://www.w3.org/2000/svg" version="1.1" xmlns:xlink="http://www.w3.org/1999/xlink" width="512" height="512" x="0" y="0" viewBox="0 0 512 512" style="enable-background:new 0 0 512 512" xml:space="preserve" class=""><g><path d="M47.483 387.954h100.246A137.8 137.8 0 0 0 159.219 401a135.821 135.821 0 0 0 182.975 8.1l8.168 8.168-6.782 6.782a12 12 0 0 0 0 16.97l61.167 61.166a33.59 33.59 0 0 0 47.5-47.5l-61.166-61.166a12 12 0 0 0-16.971 0l-6.781 6.781-8.164-8.163q1.733-2.064 3.379-4.181h101.973a35.842 35.842 0 0 0 35.8-35.8V35.8a35.842 35.842 0 0 0-35.8-35.8H47.483a35.842 35.842 0 0 0-35.8 35.8v316.351a35.842 35.842 0 0 0 35.8 35.803zm390.58 90.481a9.59 9.59 0 0 1-16.345 6.782l-24.811-24.811 13.563-13.563 24.81 24.81a9.515 9.515 0 0 1 2.783 6.782zM393.5 429.873l-13.564 13.563-10.9-10.9 13.564-13.563zm-217.311-45.849a111.777 111.777 0 1 1 78.95 32.65 110.924 110.924 0 0 1-78.95-32.65zm288.328-20.07h-87.1a135.876 135.876 0 0 0-26.356-154.8c-52.891-52.89-138.95-52.89-191.84 0a135.872 135.872 0 0 0-26.356 154.8H47.483a11.816 11.816 0 0 1-11.8-11.8v-218.1h440.636v218.1a11.816 11.816 0 0 1-11.802 11.8zM47.483 24h417.034a11.816 11.816 0 0 1 11.8 11.8v74.251H35.681V35.8A11.816 11.816 0 0 1 47.483 24zm17.674 43.027a12 12 0 0 1 12-12h.7a12 12 0 0 1 0 24h-.7a12 12 0 0 1-12-12zm38.349 0a12 12 0 0 1 12-12h.7a12 12 0 0 1 0 24h-.7a12 12 0 0 1-12-12zm38.349 0a12 12 0 0 1 12-12h.7a12 12 0 0 1 0 24h-.7a12 12 0 0 1-12-12zm146.06 0a12 12 0 0 1 12-12h134.928a12 12 0 0 1 0 24H299.915a12 12 0 0 1-12-12zM331.376 290.4a12 12 0 0 1-10.516 13.321 12.333 12.333 0 0 1-1.417.083 12 12 0 0 1-11.9-10.6l-.111-.942-30.464 36.041a12 12 0 0 1-14.426 3.039l-29.952-14.609-32.476 39.726a12 12 0 0 1-18.582-15.191l38.49-47.081A12 12 0 0 1 234.57 291l30.1 14.679 24.675-29.192-2.594.3a12 12 0 0 1-2.805-23.836l30.523-3.591a12 12 0 0 1 13.32 10.515z" fill="#d50a0a" opacity="1" data-original="#000000" class=""></path></g></svg>