<svg xmlns="http://www.w3.org/2000/svg" version="1.1" xmlns:xlink="http://www.w3.org/1999/xlink" width="512" height="512" x="0" y="0" viewBox="0 0 682.667 682.667" style="enable-background:new 0 0 512 512" xml:space="preserve"><g><defs><clipPath id="a" clipPathUnits="userSpaceOnUse"><path d="M0 512h512V0H0Z" fill="#ff4500" opacity="1" data-original="#000000"></path></clipPath></defs><path d="M0 0h58.503" style="stroke-width:15;stroke-linecap:round;stroke-linejoin:round;stroke-miterlimit:10;stroke-dasharray:none;stroke-opacity:1" transform="matrix(1.33333 0 0 -1.33333 417.555 280.48)" fill="none" stroke="#ff4500" stroke-width="15" stroke-linecap="round" stroke-linejoin="round" stroke-miterlimit="10" stroke-dasharray="none" stroke-opacity="" data-original="#000000" opacity="1"></path><path d="M0 0h-117.007" style="stroke-width:15;stroke-linecap:round;stroke-linejoin:round;stroke-miterlimit:10;stroke-dasharray:none;stroke-opacity:1" transform="matrix(1.33333 0 0 -1.33333 573.564 191.8)" fill="none" stroke="#ff4500" stroke-width="15" stroke-linecap="round" stroke-linejoin="round" stroke-miterlimit="10" stroke-dasharray="none" stroke-opacity="" data-original="#000000" opacity="1"></path><path d="M0 0h-117.007" style="stroke-width:15;stroke-linecap:round;stroke-linejoin:round;stroke-miterlimit:10;stroke-dasharray:none;stroke-opacity:1" transform="matrix(1.33333 0 0 -1.33333 573.564 236.14)" fill="none" stroke="#ff4500" stroke-width="15" stroke-linecap="round" stroke-linejoin="round" stroke-miterlimit="10" stroke-dasharray="none" stroke-opacity="" data-original="#000000" opacity="1"></path><g clip-path="url(#a)" transform="matrix(1.33333 0 0 -1.33333 0 682.667)"><path d="M0 0a7.57 7.57 0 1 0-15.139 0A7.57 7.57 0 0 0 0 0" style="fill-opacity:1;fill-rule:nonzero;stroke:none" transform="translate(61.155 431.51)" fill="#ff4500" data-original="#000000" opacity="1"></path><path d="M0 0a7.57 7.57 0 1 0-15.139 0A7.57 7.57 0 0 0 0 0" style="fill-opacity:1;fill-rule:nonzero;stroke:none" transform="translate(94.148 431.51)" fill="#ff4500" data-original="#000000" opacity="1"></path><path d="M0 0a7.57 7.57 0 1 0-15.139 0A7.57 7.57 0 0 0 0 0" style="fill-opacity:1;fill-rule:nonzero;stroke:none" transform="translate(127.14 431.51)" fill="#ff4500" data-original="#000000" opacity="1"></path><path d="M0 0h456.872" style="stroke-width:15;stroke-linecap:round;stroke-linejoin:round;stroke-miterlimit:10;stroke-dasharray:none;stroke-opacity:1" transform="translate(7.5 403.411)" fill="none" stroke="#ff4500" stroke-width="15" stroke-linecap="round" stroke-linejoin="round" stroke-miterlimit="10" stroke-dasharray="none" stroke-opacity="" data-original="#000000" opacity="1"></path><path d="M0 0v155.572c0 8.92-7.23 16.151-16.15 16.151h-424.572c-8.92 0-16.15-7.231-16.15-16.151v-285.371c0-8.919 7.23-16.149 16.15-16.149h283.806" style="stroke-width:15;stroke-linecap:round;stroke-linejoin:round;stroke-miterlimit:10;stroke-dasharray:none;stroke-opacity:1" transform="translate(464.372 287.887)" fill="none" stroke="#ff4500" stroke-width="15" stroke-linecap="round" stroke-linejoin="round" stroke-miterlimit="10" stroke-dasharray="none" stroke-opacity="" data-original="#000000" opacity="1"></path><path d="M0 0v0l-.175.001c-2.58.03-4.804 1.792-5.582 4.253a76.632 76.632 0 0 1-5.101 12.284c-1.194 2.292-.87 5.113.935 6.964l.132.135c5.408 5.407 5.408 14.174 0 19.581l-7.263 7.263c-5.407 5.408-14.174 5.408-19.581 0l-.135-.132c-1.851-1.805-4.671-2.13-6.963-.936a76.646 76.646 0 0 1-12.285 5.102c-2.461.777-4.222 3.001-4.253 5.582l-.001.174c0 7.648-6.199 13.847-13.846 13.847H-84.39c-7.647 0-13.846-6.199-13.846-13.847l-.001-.174c-.031-2.581-1.793-4.805-4.253-5.582a76.651 76.651 0 0 1-12.284-5.102c-2.292-1.194-5.113-.869-6.964.936l-.135.132c-5.407 5.408-14.174 5.408-19.581 0l-7.264-7.263c-5.407-5.407-5.407-14.174.001-19.581l.132-.135c1.804-1.851 2.129-4.672.935-6.964a76.536 76.536 0 0 1-5.1-12.284c-.779-2.46-3.001-4.223-5.581-4.253l-.17-.001c-7.623-.004-13.853-5.843-13.853-13.465V-24.5c0-7.622 6.23-13.461 13.853-13.465l.17-.001c2.58-.03 4.802-1.793 5.581-4.253a76.536 76.536 0 0 1 5.1-12.284c1.194-2.292.869-5.113-.935-6.964l-.132-.135c-5.408-5.407-5.408-14.173 0-19.581l7.263-7.263c5.407-5.408 14.174-5.408 19.581 0l.135.133c1.85 1.804 4.671 2.129 6.964.935a76.556 76.556 0 0 1 12.284-5.101c2.46-.778 4.222-3.001 4.253-5.583l.001-.174c0-7.648 6.199-13.847 13.846-13.847h10.272c7.647 0 13.846 6.199 13.846 13.847l.001.174c.031 2.582 1.792 4.805 4.253 5.583a76.551 76.551 0 0 1 12.285 5.101c2.292 1.194 5.112.869 6.963-.935l.135-.133c5.407-5.408 14.174-5.408 19.581 0l7.263 7.263c5.408 5.408 5.408 14.174 0 19.581l-.132.135c-1.805 1.851-2.129 4.672-.935 6.964a76.632 76.632 0 0 1 5.101 12.284c.778 2.461 3.002 4.223 5.582 4.253l.175.001c7.647 0 13.846 6.199 13.846 13.847v10.271C13.846-6.199 7.647 0 0 0Z" style="stroke-width:15;stroke-linecap:round;stroke-linejoin:round;stroke-miterlimit:10;stroke-dasharray:none;stroke-opacity:1" transform="translate(490.654 198.36)" fill="none" stroke="#ff4500" stroke-width="15" stroke-linecap="round" stroke-linejoin="round" stroke-miterlimit="10" stroke-dasharray="none" stroke-opacity="" data-original="#000000" opacity="1"></path><path d="M0 0c0-25.011-20.275-45.286-45.286-45.286-25.011 0-45.287 20.275-45.287 45.286 0 25.011 20.276 45.286 45.287 45.286S0 25.011 0 0Z" style="stroke-width:15;stroke-linecap:round;stroke-linejoin:round;stroke-miterlimit:10;stroke-dasharray:none;stroke-opacity:1" transform="translate(456.686 179.377)" fill="none" stroke="#ff4500" stroke-width="15" stroke-linecap="round" stroke-linejoin="round" stroke-miterlimit="10" stroke-dasharray="none" stroke-opacity="" data-original="#000000" opacity="1"></path><path d="M0 0h-156.161c-7.139 0-12.926 5.787-12.926 12.927 0 15.923 12.908 28.831 28.832 28.831h124.35c15.923 0 28.831-12.908 28.831-28.831C12.926 5.787 7.139 0 0 0Z" style="stroke-width:15;stroke-linecap:round;stroke-linejoin:round;stroke-miterlimit:10;stroke-dasharray:none;stroke-opacity:1" transform="translate(314.017 52.39)" fill="none" stroke="#ff4500" stroke-width="15" stroke-linecap="round" stroke-linejoin="round" stroke-miterlimit="10" stroke-dasharray="none" stroke-opacity="" data-original="#000000" opacity="1"></path><path d="m0 0-9.534-47.79" style="stroke-width:15;stroke-linecap:round;stroke-linejoin:round;stroke-miterlimit:10;stroke-dasharray:none;stroke-opacity:1" transform="translate(195.571 141.939)" fill="none" stroke="#ff4500" stroke-width="15" stroke-linecap="round" stroke-linejoin="round" stroke-miterlimit="10" stroke-dasharray="none" stroke-opacity="" data-original="#000000" opacity="1"></path><path d="m0 0-9.534 47.79" style="stroke-width:15;stroke-linecap:round;stroke-linejoin:round;stroke-miterlimit:10;stroke-dasharray:none;stroke-opacity:1" transform="translate(285.834 94.148)" fill="none" stroke="#ff4500" stroke-width="15" stroke-linecap="round" stroke-linejoin="round" stroke-miterlimit="10" stroke-dasharray="none" stroke-opacity="" data-original="#000000" opacity="1"></path><path d="M0 0v64.893a4.11 4.11 0 0 1-4.11 4.109h-217.147a4.11 4.11 0 0 1-4.11-4.109V0a4.11 4.11 0 0 1 4.11-4.11H-4.11A4.11 4.11 0 0 1 0 0Z" style="stroke-width:15;stroke-linecap:round;stroke-linejoin:round;stroke-miterlimit:10;stroke-dasharray:none;stroke-opacity:1" transform="translate(271.384 302.45)" fill="none" stroke="#ff4500" stroke-width="15" stroke-linecap="round" stroke-linejoin="round" stroke-miterlimit="10" stroke-dasharray="none" stroke-opacity="" data-original="#000000" opacity="1"></path><path d="M0 0h-48.154a4.111 4.111 0 0 1-4.11-4.11v-64.893a4.11 4.11 0 0 1 4.11-4.109H0a4.11 4.11 0 0 1 4.11 4.109V-4.11A4.11 4.11 0 0 1 0 0Z" style="stroke-width:15;stroke-linecap:round;stroke-linejoin:round;stroke-miterlimit:10;stroke-dasharray:none;stroke-opacity:1" transform="translate(98.28 256.018)" fill="none" stroke="#ff4500" stroke-width="15" stroke-linecap="round" stroke-linejoin="round" stroke-miterlimit="10" stroke-dasharray="none" stroke-opacity="" data-original="#000000" opacity="1"></path><path d="M0 0v-64.893a4.11 4.11 0 0 1 4.11-4.109h127.334a4.11 4.11 0 0 1 4.11 4.109V0a4.11 4.11 0 0 1-4.11 4.11H4.11A4.11 4.11 0 0 1 0 0Z" style="stroke-width:15;stroke-linecap:round;stroke-linejoin:round;stroke-miterlimit:10;stroke-dasharray:none;stroke-opacity:1" transform="translate(135.83 251.907)" fill="none" stroke="#ff4500" stroke-width="15" stroke-linecap="round" stroke-linejoin="round" stroke-miterlimit="10" stroke-dasharray="none" stroke-opacity="" data-original="#000000" opacity="1"></path></g></g></svg>