<svg xmlns="http://www.w3.org/2000/svg" version="1.1" xmlns:xlink="http://www.w3.org/1999/xlink" width="512" height="512" x="0" y="0" viewBox="0 0 512 512" style="enable-background:new 0 0 512 512" xml:space="preserve" class=""><g><path d="M443.6 107.37H327.8c9.73-19.79 18.65-41.54 24.2-59.07 8.7-27.48 8.56-41.43-.47-46.64-9.04-5.21-21.18 1.63-40.63 22.9-13.37 14.62-29 35.07-41.83 54.71-6.51 9.95-11.7 19.15-16.19 28.1H68.43c-20.01 0-36.28 16.26-36.28 36.25V415.1c0 20.01 16.28 36.28 36.28 36.28h139.65l-15.97 44.64h-30.62c-4.42 0-7.99 3.58-7.99 7.99s3.58 7.99 7.99 7.99h189.04c4.42 0 7.99-3.58 7.99-7.99s-3.58-7.99-7.99-7.99H319.9l-15.97-44.64H443.6c19.99 0 36.26-16.28 36.26-36.28V143.62c-.01-19.99-16.27-36.25-36.26-36.25zM223.59 243.44c-8.25 2.66-17.43 5.61-26.15 11.54-2.17-28.35 5.39-45.35 24.71-55.54l24.3 14.06c.37.21.75.41 1.13.59 1.23 21.22-7.59 24.08-23.99 29.35zm37.06-54.54c.35.2.49.51.55.73s.09.55-.1.88l-4.99 8.66c-.34.58-1.11.8-1.65.49l-25.82-14.94c-.01 0-.02-.01-.02-.01-.34-.2-.48-.5-.54-.71-.06-.22-.09-.55.11-.89l5.01-8.69c.21-.37.63-.58 1.04-.58.21 0 .41.05.6.16zm-41.31-22.48-5.01 8.7a17.004 17.004 0 0 0-2.03 11.52c-32.36 18.61-32.91 51.47-30.26 75.25a12.9 12.9 0 0 0 7 10.22c1.93 1 3.98 1.49 6.03 1.49 2.2 0 4.39-.57 6.42-1.72.44-.25.85-.54 1.24-.86 7.74-6.55 16.91-9.5 25.77-12.35 17.23-5.54 36.61-11.79 35.04-45.14 2.57-1.46 4.8-3.59 6.4-6.32l5.01-8.7c2.29-3.96 2.89-8.59 1.69-13.04-.14-.53-.31-1.05-.5-1.55 1.96-2.47 3.88-4.89 5.77-7.26 4.86-6.11 9.53-11.96 14.05-17.92h130.07V400H86.01V158.73h142.84c-3.88 1.27-7.32 3.89-9.51 7.69zm63.11-78.41c11.29-17.28 24.72-35.09 36.83-48.85 12.31-13.99 19.52-19.55 23.15-21.74-.09 4.24-1.3 13.26-7.26 30.92-5.86 17.36-14.56 37.89-23.88 56.33-13.04 25.8-26.41 42.59-41.89 62.02-1.58 1.98-3.18 3.99-4.8 6.03l-17.76-10.25c.96-2.43 1.9-4.82 2.83-7.18 9.1-23.13 16.96-43.1 32.78-67.28zm20.48 408.01H209.1l15.97-44.64h61.9zm160.93-80.92c0 11.19-9.09 20.3-20.27 20.3H68.43c-11.19 0-20.3-9.1-20.3-20.3V143.62c0-11.18 9.1-20.27 20.3-20.27h176.98c-2.78 6.38-5.36 12.79-7.98 19.39H78.01c-4.42 0-7.99 3.58-7.99 7.99v257.24c0 4.42 3.58 7.99 7.99 7.99h356c4.42 0 7.99-3.58 7.99-7.99V150.74c0-4.41-3.58-7.99-7.99-7.99H307.46c4.06-6.01 8.03-12.37 11.98-19.39H443.6c11.18 0 20.27 9.09 20.27 20.27V415.1zm-226.01-53.04 20.89-77.95c1.14-4.26 5.52-6.8 9.79-5.65 4.26 1.14 6.79 5.53 5.65 9.79l-20.89 77.95a8.008 8.008 0 0 1-7.72 5.93c-.68 0-1.38-.09-2.07-.27-4.27-1.15-6.8-5.54-5.65-9.8zm-73.18-39.11a7.977 7.977 0 0 1 3.47-6.32l36.65-25.12a7.98 7.98 0 0 1 11.11 2.08 7.98 7.98 0 0 1-2.08 11.11l-27.69 18.98 28.13 22.21c3.46 2.74 4.06 7.76 1.32 11.23-1.58 2-3.92 3.04-6.28 3.04-1.74 0-3.48-.56-4.95-1.72L167.7 329.5a8.036 8.036 0 0 1-3.03-6.55zm131.45-29.36c2.5-3.64 7.47-4.57 11.11-2.07l36.62 25.12a7.992 7.992 0 0 1 .44 12.86l-36.62 28.94a7.969 7.969 0 0 1-4.95 1.72c-2.36 0-4.7-1.04-6.28-3.04-2.74-3.46-2.15-8.49 1.32-11.23l28.11-22.21-27.67-18.98c-3.65-2.49-4.57-7.47-2.08-11.11z" fill="#ff4500" opacity="1" data-original="#000000"></path></g></svg>