<svg id="Layer_1" enable-background="new 0 0 512 512" viewBox="0 0 512 512" xmlns="http://www.w3.org/2000/svg" xmlns:xlink="http://www.w3.org/1999/xlink"><linearGradient id="SVGID_1_" gradientUnits="userSpaceOnUse" x1="32.148" x2="479.853" y1="256" y2="256"><stop offset="0" stop-color="#a647fe"/><stop offset=".1854" stop-color="#a34afe"/><stop offset=".3411" stop-color="#9852fe"/><stop offset=".486" stop-color="#8760fe"/><stop offset=".6243" stop-color="#6e74fe"/><stop offset=".7582" stop-color="#4f8dff"/><stop offset=".8867" stop-color="#28acff"/><stop offset="1" stop-color="#0cf"/></linearGradient><path d="m443.6 107.37h-115.8c9.73-19.79 18.65-41.54 24.2-59.07 8.7-27.48 8.56-41.43-.47-46.64-9.04-5.21-21.18 1.63-40.63 22.9-13.37 14.62-29 35.07-41.83 54.71-6.51 9.95-11.7 19.15-16.19 28.1h-184.45c-20.01 0-36.28 16.26-36.28 36.25v271.48c0 20.01 16.28 36.28 36.28 36.28h139.65l-15.97 44.64h-30.62c-4.42 0-7.99 3.58-7.99 7.99s3.58 7.99 7.99 7.99h189.04c4.42 0 7.99-3.58 7.99-7.99s-3.58-7.99-7.99-7.99h-30.63l-15.97-44.64h139.67c19.99 0 36.26-16.28 36.26-36.28v-271.48c-.01-19.99-16.27-36.25-36.26-36.25zm-220.01 136.07c-8.25 2.66-17.43 5.61-26.15 11.54-2.17-28.35 5.39-45.35 24.71-55.54l24.3 14.06c.37.21.75.41 1.13.59 1.23 21.22-7.59 24.08-23.99 29.35zm37.06-54.54c.35.2.49.51.55.73s.09.55-.1.88l-4.99 8.66c-.34.58-1.11.8-1.65.49l-25.82-14.94c-.01 0-.02-.01-.02-.01-.34-.2-.48-.5-.54-.71-.06-.22-.09-.55.11-.89l5.01-8.69c.21-.37.63-.58 1.04-.58.21 0 .41.05.6.16zm-41.31-22.48-5.01 8.7c-2.03 3.52-2.73 7.55-2.03 11.52-32.36 18.61-32.91 51.47-30.26 75.25.45 4.4 3.08 8.23 7 10.22 1.93 1 3.98 1.49 6.03 1.49 2.2 0 4.39-.57 6.42-1.72.44-.25.85-.54 1.24-.86 7.74-6.55 16.91-9.5 25.77-12.35 17.23-5.54 36.61-11.79 35.04-45.14 2.57-1.46 4.8-3.59 6.4-6.32l5.01-8.7c2.29-3.96 2.89-8.59 1.69-13.04-.14-.53-.31-1.05-.5-1.55 1.96-2.47 3.88-4.89 5.77-7.26 4.86-6.11 9.53-11.96 14.05-17.92h130.07v241.26h-340.02v-241.27h142.84c-3.88 1.27-7.32 3.89-9.51 7.69zm63.11-78.41c11.29-17.28 24.72-35.09 36.83-48.85 12.31-13.99 19.52-19.55 23.15-21.74-.09 4.24-1.3 13.26-7.26 30.92-5.86 17.36-14.56 37.89-23.88 56.33-13.04 25.8-26.41 42.59-41.89 62.02-1.58 1.98-3.18 3.99-4.8 6.03l-17.76-10.25c.96-2.43 1.9-4.82 2.83-7.18 9.1-23.13 16.96-43.1 32.78-67.28zm20.48 408.01h-93.83l15.97-44.64h61.9zm160.93-80.92c0 11.19-9.09 20.3-20.27 20.3h-375.16c-11.19 0-20.3-9.1-20.3-20.3v-271.48c0-11.18 9.1-20.27 20.3-20.27h176.98c-2.78 6.38-5.36 12.79-7.98 19.39h-159.42c-4.42 0-7.99 3.58-7.99 7.99v257.24c0 4.42 3.58 7.99 7.99 7.99h356c4.42 0 7.99-3.58 7.99-7.99v-257.23c0-4.41-3.58-7.99-7.99-7.99h-126.55c4.06-6.01 8.03-12.37 11.98-19.39h124.16c11.18 0 20.27 9.09 20.27 20.27v271.47zm-226.01-53.04 20.89-77.95c1.14-4.26 5.52-6.8 9.79-5.65 4.26 1.14 6.79 5.53 5.65 9.79l-20.89 77.95c-.96 3.57-4.19 5.93-7.72 5.93-.68 0-1.38-.09-2.07-.27-4.27-1.15-6.8-5.54-5.65-9.8zm-73.18-39.11c.09-2.54 1.37-4.89 3.47-6.32l36.65-25.12c3.64-2.5 8.62-1.57 11.11 2.08 2.5 3.64 1.57 8.62-2.08 11.11l-27.69 18.98 28.13 22.21c3.46 2.74 4.06 7.76 1.32 11.23-1.58 2-3.92 3.04-6.28 3.04-1.74 0-3.48-.56-4.95-1.72l-36.65-28.94c-1.99-1.58-3.11-4.01-3.03-6.55zm131.45-29.36c2.5-3.64 7.47-4.57 11.11-2.07l36.62 25.12c2.1 1.44 3.38 3.78 3.47 6.32s-1.04 4.97-3.03 6.54l-36.62 28.94c-1.47 1.16-3.22 1.72-4.95 1.72-2.36 0-4.7-1.04-6.28-3.04-2.74-3.46-2.15-8.49 1.32-11.23l28.11-22.21-27.67-18.98c-3.65-2.49-4.57-7.47-2.08-11.11z" fill="url(#SVGID_1_)"/></svg>