<svg xmlns="http://www.w3.org/2000/svg" version="1.1" xmlns:xlink="http://www.w3.org/1999/xlink" width="512" height="512" x="0" y="0" viewBox="0 0 48 48" style="enable-background:new 0 0 512 512" xml:space="preserve"><g><path d="M32 43H4V27c0-1.103.897-2 2-2h24c1.103 0 2 .897 2 2zM6 41h24V27H6z" fill="#ff4500" opacity="1" data-original="#000000"></path><path d="M31 47H5c-2.206 0-4-1.794-4-4 0-1.103.897-2 2-2h30c1.103 0 2 .897 2 2 0 2.206-1.794 4-4 4zM3 43c0 1.103.897 2 2 2h26c1.103 0 2-.897 2-2zM18 35c-1.654 0-3-1.346-3-3s1.346-3 3-3 3 1.346 3 3-1.346 3-3 3zm0-4a1.001 1.001 0 0 0 0 2 1.001 1.001 0 0 0 0-2z" fill="#ff4500" opacity="1" data-original="#000000"></path><path d="M23 43H13v-2c0-2.206 1.794-4 4-4h2c2.206 0 4 1.794 4 4zm-8-2h6c0-1.103-.897-2-2-2h-2c-1.103 0-2 .897-2 2zM44 19H16V3c0-1.103.897-2 2-2h24c1.103 0 2 .897 2 2zm-26-2h24V3H18z" fill="#ff4500" opacity="1" data-original="#000000"></path><path d="M43 23H17c-2.206 0-4-1.794-4-4 0-1.103.897-2 2-2h30c1.103 0 2 .897 2 2 0 2.206-1.794 4-4 4zm-28-4c0 1.103.897 2 2 2h26c1.103 0 2-.897 2-2zM30 11c-1.654 0-3-1.346-3-3s1.346-3 3-3 3 1.346 3 3-1.346 3-3 3zm0-4a1 1 0 1 0 0 2 1 1 0 0 0 0-2z" fill="#ff4500" opacity="1" data-original="#000000"></path><path d="M35 19H25v-2c0-2.206 1.794-4 4-4h2c2.206 0 4 1.794 4 4zm-8-2h6c0-1.103-.897-2-2-2h-2c-1.103 0-2 .897-2 2zM9 22a1 1 0 0 1-1-1v-7a1 1 0 1 1 2 0v7a1 1 0 0 1-1 1zM13 13h-2a1 1 0 1 1 0-2h2a1 1 0 1 1 0 2z" fill="#ff4500" opacity="1" data-original="#000000"></path><path d="M9 15a1 1 0 0 1-1-1c0-1.654 1.346-3 3-3a1 1 0 1 1 0 2c-.551 0-1 .448-1 1a1 1 0 0 1-1 1zM40 34a1 1 0 0 1-1-1v-7a1 1 0 1 1 2 0v7a1 1 0 0 1-1 1zM38 36h-3a1 1 0 1 1 0-2h3a1 1 0 1 1 0 2z" fill="#ff4500" opacity="1" data-original="#000000"></path><path d="M38 36a1 1 0 1 1 0-2 1 1 0 0 0 1-1 1 1 0 1 1 2 0c0 1.654-1.346 3-3 3z" fill="#ff4500" opacity="1" data-original="#000000"></path></g></svg>